<svg version="1.1" id="Calque_1" xmlns="http://www.w3.org/2000/svg" x="0" y="0" viewBox="0 0 32.58 27.71" xml:space="preserve"><style>.st1{fill:#3b6fb5}.st4{fill:#fdfdfe}.st5{fill:#fefeff}</style><path d="M.01 1.9V.01h32.34c.19 0 .24.04.24.24-.01 9.08-.01 18.16 0 27.23 0 .19-.04.24-.24.24-.5-.02-1.01-.01-1.51-.01.03-.07.1-.04.16-.06 1.01-.23 1.66-1.2 1.47-2.19-.18-.95-.99-1.58-1.97-1.54-.85.03-1.63.74-1.75 1.59-.13.97.43 1.83 1.36 2.1.08.02.17 0 .23.09H.25c-.21 0-.25-.04-.25-.23.01-.61.01-1.21.01-1.82h.04c.14 1.11.96 1.83 2.07 1.83h23.27c1.22 0 2.07-.86 2.07-2.08V2.14c0-1.22-.86-2.08-2.07-2.08H2.14C1.01.06.19.78.05 1.89c-.02 0-.03.01-.04.01z" fill="#feffff"/><path class="st1" d="M30.32 27.7c-.05-.09-.15-.06-.23-.09-.93-.27-1.49-1.13-1.36-2.1.11-.85.89-1.56 1.75-1.59.98-.04 1.79.59 1.97 1.54.19.99-.46 1.96-1.47 2.19-.05.01-.12-.02-.16.06-.16-.01-.33-.01-.5-.01zm.28-.25c.91 0 1.66-.76 1.66-1.66 0-.89-.76-1.64-1.65-1.64-.9 0-1.65.74-1.66 1.63-.01.91.74 1.67 1.65 1.67z"/><path d="M.01 1.9h.04c0 .09.01.19.01.28v23.2c0 .09-.01.19-.01.28H.01V1.9z" fill="#cfd6ee"/><path d="M.05 25.65c0-.09.01-.19.01-.28V2.17c0-.09-.01-.19-.01-.28C.2.77 1.01.06 2.14.06h23.25c1.22 0 2.07.86 2.07 2.08V25.4c0 1.22-.86 2.08-2.07 2.08H2.12c-1.11.01-1.93-.72-2.07-1.83zm14.58-13.54c0-.51-.01-1.02 0-1.52 0-.2-.06-.24-.25-.24-1.13.01-2.27.01-3.4 0-.2 0-.26.06-.26.26.01 4.19.01 8.38 0 12.56 0 .19.05.25.24.24 1.19-.01 2.37-.01 3.56 0 .23 0 .28-.06.28-.29-.01-2.15 0-4.3-.01-6.45 0-.4.03-.8.11-1.19.18-.85.58-1.53 1.48-1.79.24-.07.49-.08.73-.1 1.04-.08 1.76.43 2.05 1.42.15.53.18 1.08.19 1.62.01 2.17.01 4.33 0 6.5 0 .23.06.28.28.28 1.17-.01 2.34-.01 3.51 0 .21 0 .27-.06.27-.27-.01-2.41 0-4.83-.01-7.24 0-.83-.07-1.65-.25-2.46-.25-1.08-.71-2.04-1.67-2.68-.66-.43-1.4-.62-2.17-.7-1.14-.11-2.23-.01-3.22.63-.58.37-1.04.85-1.46 1.42zM8.18 16.9v-6.29c0-.2-.05-.26-.25-.26-1.19.01-2.37.01-3.56 0-.22 0-.26.06-.26.27.01 4.18.01 8.36 0 12.54 0 .2.05.26.25.26 1.19-.01 2.37-.01 3.56 0 .21 0 .27-.06.27-.27-.02-2.09-.01-4.17-.01-6.25zM6.13 8.55c1.29 0 2.36-1.05 2.37-2.32.01-1.3-1.04-2.37-2.34-2.38-1.3 0-2.37 1.05-2.37 2.35 0 1.28 1.06 2.35 2.34 2.35z" fill="#2d68b1"/><path class="st4" d="M30.6 27.45c-.91 0-1.65-.76-1.65-1.67.01-.9.75-1.63 1.66-1.63.9 0 1.65.75 1.65 1.64 0 .9-.75 1.66-1.66 1.66zm.27-1.52c.42-.12.56-.31.53-.66-.03-.3-.24-.47-.62-.49-.23-.01-.46 0-.69 0-.11 0-.17.03-.17.16v1.71c0 .11.03.15.14.16.12 0 .17-.04.16-.16-.01-.16 0-.32 0-.49 0-.21.11-.28.3-.22.07.02.1.09.14.14.12.19.26.38.37.58.08.14.21.19.32.12.13-.08-.03-.17-.07-.24-.12-.19-.26-.39-.41-.61z"/><path class="st5" d="M14.63 12.11c.42-.57.88-1.05 1.46-1.42.99-.64 2.09-.74 3.22-.63.77.07 1.51.26 2.17.7.97.64 1.42 1.6 1.67 2.68.19.81.25 1.63.25 2.46 0 2.41 0 4.83.01 7.24 0 .21-.05.27-.27.27-1.17-.01-2.34-.01-3.51 0-.22 0-.29-.04-.28-.28.01-2.17.01-4.33 0-6.5 0-.54-.04-1.09-.19-1.62-.28-1-1.01-1.5-2.05-1.42-.25.02-.49.03-.73.1-.9.26-1.3.94-1.48 1.79-.08.39-.12.79-.11 1.19 0 2.15 0 4.3.01 6.45 0 .22-.05.29-.28.29-1.19-.01-2.37-.01-3.56 0-.19 0-.24-.05-.24-.24.01-4.19.01-8.38 0-12.56 0-.2.05-.26.26-.26 1.13.01 2.27.01 3.4 0 .19 0 .25.05.25.24-.01.51 0 1.02 0 1.52z"/><path class="st4" d="M8.18 16.9v6.24c0 .21-.05.27-.27.27-1.19-.01-2.37-.01-3.56 0-.21 0-.25-.06-.25-.26.01-4.18.01-8.36 0-12.54 0-.21.05-.27.26-.27 1.19.01 2.37.01 3.56 0 .21 0 .26.06.25.26.01 2.11.01 4.2.01 6.3z"/><path class="st5" d="M6.13 8.55c-1.28 0-2.34-1.07-2.34-2.35 0-1.29 1.07-2.35 2.37-2.35 1.29 0 2.34 1.07 2.34 2.38-.01 1.28-1.08 2.33-2.37 2.32z"/><path class="st1" d="M30.87 25.93c.15.22.29.41.4.62.04.07.21.16.07.24-.11.07-.24.02-.32-.12-.11-.2-.24-.39-.37-.58-.04-.06-.07-.12-.14-.14-.19-.07-.3.01-.3.22 0 .16-.01.32 0 .49.01.12-.04.17-.16.16-.11 0-.15-.05-.14-.16v-1.71c0-.13.06-.16.17-.16.23.01.46-.01.69 0 .38.02.59.19.62.49.04.35-.1.54-.52.65zm-.32-.89c-.09.05-.27-.1-.33.09-.13.44.01.6.46.56.08-.01.15-.02.22-.05.2-.08.25-.36.1-.51-.12-.11-.28-.09-.45-.09z"/><path d="M30.55 25.04c.17 0 .33-.02.46.1.15.14.1.43-.1.51-.07.03-.15.04-.22.05-.45.04-.58-.12-.46-.56.05-.21.23-.05.32-.1z" fill="#fbfbfe"/></svg>