<svg xmlns="http://www.w3.org/2000/svg" viewBox="0 0 512.001 512.001"><path d="M494.117 409.268L392.479 510.906a3.735 3.735 0 01-5.283 0L267.46 391.171a3.735 3.735 0 010-5.283L369.098 284.25a3.735 3.735 0 015.283 0l119.735 119.735a3.734 3.734 0 01.001 5.283z" fill="#dfeaef"/><path d="M369.098 284.25l-30.588 30.588 125.018 125.018 30.588-30.588a3.735 3.735 0 000-5.283L374.381 284.25a3.735 3.735 0 00-5.283 0z" fill="#bad0d8"/><path d="M203.037 230.741l-37.656-37.656a7.718 7.718 0 0110.915-10.915l37.656 37.656a7.718 7.718 0 01-10.915 10.915zm114.544 114.544l-33.593-33.593a7.718 7.718 0 0110.915-10.915l33.593 33.593a7.718 7.718 0 01-10.915 10.915z" fill="#2c5871"/><path d="M282.705 292.714l-94.016 94.016c-9.398 9.398-24.636 9.398-34.035 0l-29.384-29.384c-9.398-9.398-9.398-24.636 0-34.035l94.016-94.016 63.419 63.419z" fill="#9ebecc"/><path d="M154.654 386.73c9.398 9.398 24.636 9.398 34.035 0l94.016-94.016-33.245-33.244-111.033 111.033 16.227 16.227z" fill="#84aab7"/><path fill="#9ebecc" d="M380.62 171.27l-91.328 91.33-39.901-39.902 91.328-91.328z"/><path d="M227.75 142.902L126.113 244.54a3.735 3.735 0 01-5.283 0L1.094 124.805a3.735 3.735 0 010-5.283L102.732 17.884a3.735 3.735 0 015.283 0L227.75 137.619a3.735 3.735 0 010 5.283z" fill="#dfeaef"/><path d="M102.732 17.884L72.387 48.229l125.018 125.018 30.345-30.345a3.735 3.735 0 000-5.283L108.015 17.884a3.735 3.735 0 00-5.283 0z" fill="#bad0d8"/><path d="M370.448 234.1L225.314 379.234c-4.508 4.508-11.818 4.508-16.326 0l-76.222-76.222c-4.508-4.508-4.508-11.818 0-16.326L277.9 141.552c4.508-4.508 11.818-4.508 16.326 0l76.222 76.222c4.509 4.509 4.509 11.818 0 16.326z" fill="#4a5a5e"/><path d="M208.988 379.234c4.508 4.508 11.818 4.508 16.326 0L370.448 234.1c4.508-4.508 4.508-11.818 0-16.326l-25.491-25.491-161.46 161.46 25.491 25.491z" fill="#334042"/><path d="M341.832 1.289c-1.987-1.987-5.331-1.633-6.807.759-30.236 49-24.119 114.074 18.367 156.56s107.56 48.603 156.56 18.367c2.392-1.476 2.747-4.819.759-6.807L341.832 1.289z" fill="#66c1ff"/><path d="M318.505 44.421l149.074 149.074a126.478 126.478 0 0042.366-16.517c2.394-1.477 2.753-4.823.763-6.812L341.834 1.291c-1.989-1.989-5.335-1.631-6.812.763a126.47 126.47 0 00-16.517 42.367z" fill="#2aaee8"/><path d="M182.389 188.263l-36.215-36.215 48.003-48.003-10.915-10.915-48.003 48.003-30.758-30.758 48.003-48.002v-.001l-10.915-10.915L93.586 99.46 57.371 63.245 46.456 74.16l36.215 36.215-48.003 48.003 10.915 10.915 48.003-48.002 30.758 30.757-48.003 48.003 10.915 10.915 48.003-48.003 36.215 36.215zM448.755 454.63v-.001l-36.215-36.215 48.003-48.003-10.915-10.915-48.003 48.003-30.758-30.757 48.003-48.003v-.001l-10.915-10.915-48.003 48.003-36.215-36.215-10.915 10.915v.001l36.215 36.215-48.003 48.002 10.915 10.916 48.003-48.003 30.758 30.757-48.003 48.003 10.915 10.915 48.003-48.003 36.215 36.216z" fill="#9ebecc"/><path d="M150.275 126.117l10.915 10.915 32.987-32.987-3.368-3.367-7.547-7.548zm2.229-63.745l-10.915-10.915-32.987 32.987 10.915 10.915 32.987-32.986zm222.222 288.681l10.915 10.915 33.229-33.229v-.001l-7.547-7.547-3.368-3.368zm41.672 41.673l10.916 10.915 33.229-33.23-10.915-10.915z" fill="#84aab7"/></svg>