<?xml version="1.0" encoding="utf-8"?>
<!-- Generator: Adobe Illustrator 24.3.0, SVG Export Plug-In . SVG Version: 6.00 Build 0)  -->
<svg version="1.1" id="Calque_1" xmlns="http://www.w3.org/2000/svg" xmlns:xlink="http://www.w3.org/1999/xlink" x="0px" y="0px"
	 viewBox="0 0 32.58 27.71" style="enable-background:new 0 0 32.58 27.71;" xml:space="preserve">
<style type="text/css">
	.st0{fill:#FEFFFF;}
	.st1{fill:#3B6FB5;}
	.st2{fill:#CFD6EE;}
	.st3{fill:#2D68B1;}
	.st4{fill:#FDFDFE;}
	.st5{fill:#FEFEFF;}
	.st6{fill:#FBFBFE;}
</style>
<g>
	<path class="st0" d="M0.01,1.9c0-0.63,0-1.26,0-1.89c10.78,0,21.56,0,32.34,0c0.19,0,0.24,0.04,0.24,0.24
		c-0.01,9.08-0.01,18.16,0,27.23c0,0.19-0.04,0.24-0.24,0.24c-0.5-0.02-1.01-0.01-1.51-0.01c0.03-0.07,0.1-0.04,0.16-0.06
		c1.01-0.23,1.66-1.2,1.47-2.19c-0.18-0.95-0.99-1.58-1.97-1.54c-0.85,0.03-1.63,0.74-1.75,1.59c-0.13,0.97,0.43,1.83,1.36,2.1
		c0.08,0.02,0.17,0,0.23,0.09c-10.03,0-20.06,0-30.09,0C0.04,27.7,0,27.66,0,27.47c0.01-0.61,0.01-1.21,0.01-1.82l0.02,0l0.02,0
		c0.14,1.11,0.96,1.83,2.07,1.83c7.76,0,15.51,0,23.27,0c1.22,0,2.07-0.86,2.07-2.08c0-7.75,0-15.51,0-23.26
		c0-1.22-0.86-2.08-2.07-2.08c-7.75,0-15.5,0-23.25,0c-1.13,0-1.95,0.72-2.09,1.83C0.03,1.89,0.02,1.9,0.01,1.9z"/>
	<path class="st1" d="M30.32,27.7c-0.05-0.09-0.15-0.06-0.23-0.09c-0.93-0.27-1.49-1.13-1.36-2.1c0.11-0.85,0.89-1.56,1.75-1.59
		c0.98-0.04,1.79,0.59,1.97,1.54c0.19,0.99-0.46,1.96-1.47,2.19c-0.05,0.01-0.12-0.02-0.16,0.06C30.66,27.7,30.49,27.7,30.32,27.7z
		 M30.6,27.45c0.91,0,1.66-0.76,1.66-1.66c0-0.89-0.76-1.64-1.65-1.64c-0.9,0-1.65,0.74-1.66,1.63
		C28.94,26.69,29.69,27.45,30.6,27.45z"/>
	<path class="st2" d="M0.01,1.9c0.01,0,0.03,0,0.04,0c0,0.09,0.01,0.19,0.01,0.28c0,7.73,0,15.46,0,23.2c0,0.09-0.01,0.19-0.01,0.28
		l-0.02,0l-0.02,0C0.01,17.73,0.01,9.82,0.01,1.9z"/>
	<path class="st3" d="M0.05,25.65c0-0.09,0.01-0.19,0.01-0.28c0-7.73,0-15.46,0-23.2c0-0.09-0.01-0.19-0.01-0.28
		c0.15-1.12,0.96-1.83,2.09-1.83c7.75,0,15.5,0,23.25,0c1.22,0,2.07,0.86,2.07,2.08c0,7.75,0,15.51,0,23.26
		c0,1.22-0.86,2.08-2.07,2.08c-7.76,0-15.51,0-23.27,0C1.01,27.49,0.19,26.76,0.05,25.65z M14.63,12.11c0-0.51-0.01-1.02,0-1.52
		c0-0.2-0.06-0.24-0.25-0.24c-1.13,0.01-2.27,0.01-3.4,0c-0.2,0-0.26,0.06-0.26,0.26c0.01,4.19,0.01,8.38,0,12.56
		c0,0.19,0.05,0.25,0.24,0.24c1.19-0.01,2.37-0.01,3.56,0c0.23,0,0.28-0.06,0.28-0.29c-0.01-2.15,0-4.3-0.01-6.45
		c0-0.4,0.03-0.8,0.11-1.19c0.18-0.85,0.58-1.53,1.48-1.79c0.24-0.07,0.49-0.08,0.73-0.1c1.04-0.08,1.76,0.43,2.05,1.42
		c0.15,0.53,0.18,1.08,0.19,1.62c0.01,2.17,0.01,4.33,0,6.5c0,0.23,0.06,0.28,0.28,0.28c1.17-0.01,2.34-0.01,3.51,0
		c0.21,0,0.27-0.06,0.27-0.27c-0.01-2.41,0-4.83-0.01-7.24c0-0.83-0.07-1.65-0.25-2.46c-0.25-1.08-0.71-2.04-1.67-2.68
		c-0.66-0.43-1.4-0.62-2.17-0.7c-1.14-0.11-2.23-0.01-3.22,0.63C15.51,11.06,15.05,11.54,14.63,12.11z M8.18,16.9
		c0-2.1,0-4.2,0-6.29c0-0.2-0.05-0.26-0.25-0.26c-1.19,0.01-2.37,0.01-3.56,0c-0.22,0-0.26,0.06-0.26,0.27
		c0.01,4.18,0.01,8.36,0,12.54c0,0.2,0.05,0.26,0.25,0.26c1.19-0.01,2.37-0.01,3.56,0c0.21,0,0.27-0.06,0.27-0.27
		C8.17,21.06,8.18,18.98,8.18,16.9z M6.13,8.55c1.29,0,2.36-1.05,2.37-2.32c0.01-1.3-1.04-2.37-2.34-2.38
		c-1.3,0-2.37,1.05-2.37,2.35C3.79,7.48,4.85,8.55,6.13,8.55z"/>
	<path class="st4" d="M30.6,27.45c-0.91,0-1.65-0.76-1.65-1.67c0.01-0.9,0.75-1.63,1.66-1.63c0.9,0,1.65,0.75,1.65,1.64
		C32.26,26.69,31.51,27.45,30.6,27.45z M30.87,25.93c0.42-0.12,0.56-0.31,0.53-0.66c-0.03-0.3-0.24-0.47-0.62-0.49
		c-0.23-0.01-0.46,0-0.69,0c-0.11,0-0.17,0.03-0.17,0.16c0,0.57,0,1.14,0,1.71c0,0.11,0.03,0.15,0.14,0.16
		c0.12,0,0.17-0.04,0.16-0.16c-0.01-0.16,0-0.32,0-0.49c0-0.21,0.11-0.28,0.3-0.22c0.07,0.02,0.1,0.09,0.14,0.14
		c0.12,0.19,0.26,0.38,0.37,0.58c0.08,0.14,0.21,0.19,0.32,0.12c0.13-0.08-0.03-0.17-0.07-0.24C31.16,26.35,31.02,26.15,30.87,25.93
		z"/>
	<path class="st5" d="M14.63,12.11c0.42-0.57,0.88-1.05,1.46-1.42c0.99-0.64,2.09-0.74,3.22-0.63c0.77,0.07,1.51,0.26,2.17,0.7
		c0.97,0.64,1.42,1.6,1.67,2.68c0.19,0.81,0.25,1.63,0.25,2.46c0,2.41,0,4.83,0.01,7.24c0,0.21-0.05,0.27-0.27,0.27
		c-1.17-0.01-2.34-0.01-3.51,0c-0.22,0-0.29-0.04-0.28-0.28c0.01-2.17,0.01-4.33,0-6.5c0-0.54-0.04-1.09-0.19-1.62
		c-0.28-1-1.01-1.5-2.05-1.42c-0.25,0.02-0.49,0.03-0.73,0.1c-0.9,0.26-1.3,0.94-1.48,1.79c-0.08,0.39-0.12,0.79-0.11,1.19
		c0,2.15,0,4.3,0.01,6.45c0,0.22-0.05,0.29-0.28,0.29c-1.19-0.01-2.37-0.01-3.56,0c-0.19,0-0.24-0.05-0.24-0.24
		c0.01-4.19,0.01-8.38,0-12.56c0-0.2,0.05-0.26,0.26-0.26c1.13,0.01,2.27,0.01,3.4,0c0.19,0,0.25,0.05,0.25,0.24
		C14.62,11.1,14.63,11.61,14.63,12.11z"/>
	<path class="st4" d="M8.18,16.9c0,2.08,0,4.16,0,6.24c0,0.21-0.05,0.27-0.27,0.27c-1.19-0.01-2.37-0.01-3.56,0
		c-0.21,0-0.25-0.06-0.25-0.26c0.01-4.18,0.01-8.36,0-12.54c0-0.21,0.05-0.27,0.26-0.27c1.19,0.01,2.37,0.01,3.56,0
		c0.21,0,0.26,0.06,0.25,0.26C8.18,12.71,8.18,14.8,8.18,16.9z"/>
	<path class="st5" d="M6.13,8.55c-1.28,0-2.34-1.07-2.34-2.35c0-1.29,1.07-2.35,2.37-2.35c1.29,0,2.34,1.07,2.34,2.38
		C8.49,7.51,7.42,8.56,6.13,8.55z"/>
	<path class="st1" d="M30.87,25.93c0.15,0.22,0.29,0.41,0.4,0.62c0.04,0.07,0.21,0.16,0.07,0.24c-0.11,0.07-0.24,0.02-0.32-0.12
		c-0.11-0.2-0.24-0.39-0.37-0.58c-0.04-0.06-0.07-0.12-0.14-0.14c-0.19-0.07-0.3,0.01-0.3,0.22c0,0.16-0.01,0.32,0,0.49
		c0.01,0.12-0.04,0.17-0.16,0.16c-0.11,0-0.15-0.05-0.14-0.16c0-0.57,0-1.14,0-1.71c0-0.13,0.06-0.16,0.17-0.16
		c0.23,0.01,0.46-0.01,0.69,0c0.38,0.02,0.59,0.19,0.62,0.49C31.43,25.63,31.29,25.82,30.87,25.93z M30.55,25.04
		c-0.09,0.05-0.27-0.1-0.33,0.09c-0.13,0.44,0.01,0.6,0.46,0.56c0.08-0.01,0.15-0.02,0.22-0.05c0.2-0.08,0.25-0.36,0.1-0.51
		C30.88,25.02,30.72,25.04,30.55,25.04z"/>
	<path class="st6" d="M30.55,25.04c0.17,0,0.33-0.02,0.46,0.1c0.15,0.14,0.1,0.43-0.1,0.51c-0.07,0.03-0.15,0.04-0.22,0.05
		c-0.45,0.04-0.58-0.12-0.46-0.56C30.28,24.93,30.46,25.09,30.55,25.04z"/>
</g>
</svg>
