<svg height="512" viewBox="0 0 512.001 512.001" width="512" xmlns="http://www.w3.org/2000/svg"><g fill="#fff"><circle cx="361.001" cy="401" r="10"/><path d="M7.191 501.975a10.002 10.002 0 0010 10.025h67.81c5.522 0 10-4.478 10-10s-4.478-10-10-10h-13v-86.004c17.9-10.166 33.02-24.926 43.613-42.495 26.75 11.404 57.715 17.132 88.697 17.132 28.941 0 57.872-5 83.344-14.978l18.435 137.672a10 10 0 009.911 8.673h75c5.522 0 10-4.478 10-10s-4.478-10-10-10h-20v-46c0-5.523-4.478-10-10-10s-10 4.477-10 10v46h-26.25l-24.549-183.327c-.732-5.476-5.77-9.318-11.238-8.585-5.474.733-9.317 5.765-8.584 11.238l4.531 33.839c-47.717 20.28-112.453 20.368-160.439.367a115.884 115.884 0 007.777-34.884c.358-5.511-3.819-10.27-9.33-10.627-5.516-.357-10.27 3.82-10.627 9.331-2.321 35.7-24.252 66.455-54.762 81.703A10 10 0 0052.001 400v92H27.063c-.491-18.05-2.301-35.623-3.928-51.415-1.633-15.846-3.175-30.813-3.135-43.557.07-24.511 6.397-44.91 20.518-66.141a10 10 0 001.298-8.249c-10.409-36.956 2.098-76.514 31.864-100.779 18.193-14.836 23.029-33.648 30.662-53.321C117.936 133.525 147.538 110 178.001 110c29.924 0 59.267 22.88 73.02 56.938 8.12 20.084 26.706 33.062 47.351 33.062 23.938 0 44.264-16.331 49.425-39.714.019-.082.035-.164.052-.247l11.729-60.31a10.002 10.002 0 00-6.066-11.18c-7.6-3.074-12.51-10.355-12.51-18.549 0-24.146 17.206-44.349 40-48.996V47.94a10 10 0 009.113 9.96c1.338.119-7.303-1.612 101.887 20.296V100c0 11.028-8.972 20-20 20h-51c-5.522 0-10 4.477-10 10v105.35c0 33.651-21.446 63.93-53.367 75.344a10 10 0 00-6.633 9.416V356c0 5.523 4.478 10 10 10s10-4.477 10-10v-29.114c36.167-15.904 60-51.835 60-91.536V140h41c22.056 0 40-17.944 40-40V70a9.999 9.999 0 00-8.036-9.805L401.001 39.577V10c0-5.523-4.478-10-10-10-38.598 0-70 31.402-70 70 0 13.514 6.678 25.786 17.542 33.12l-10.302 52.969c-3.164 14.085-15.43 23.911-29.87 23.911-12.451 0-23.76-8.07-28.808-20.554C252.791 117.909 215.995 90 178.001 90c-38.651 0-75.745 28.653-92.304 71.303-7.358 18.967-11.093 33.997-24.654 45.056-34.754 28.33-50.024 73.926-39.636 117.256C6.896 346.732.077 370.16.001 396.969c-.043 13.8 1.552 29.279 3.239 45.666 1.969 19.103 4.004 38.857 3.951 59.34z"/></g></svg>