<svg height="512" width="512" xmlns="http://www.w3.org/2000/svg"><g fill="#fff"><circle cx="10.001" cy="311.005" r="10"/><path d="M40 431.005h60c5.523 0 10-4.478 10-10s-4.477-10-10-10H80v-40.724c23.281-3.389 43.488-18.431 53.435-39.677 41.639 15.262 95.619 13.566 135.607-4.375 9.489 15.925 13.646 34.186 12.956 50.279-1.314 30.829 9.266 54.496 40.001 54.496h60c5.523 0 10-4.478 10-10s-4.477-10-10-10h-20v-37.57c0-16.672 4.399-32.66 12.62-46.667 4.037 9.519 12.365 14.237 22.38 14.237h30c14.359 0 25.449-9.437 25.218-31.621C474.699 307.015 512 298.529 512 256.005c0-14.292-4.117-30.63-11.693-46.716 7.439-7.404 11.693-17.471 11.693-28.284 0-17.252-10.564-32.061-26.913-37.728-13.499-4.68-27.758-2.026-38.334 6.662-22.12-11.524-45.713-11.789-67.904-.807-20.978-28.415-61.275-44.326-98.083-37.574-19.854 3.638-38.189.664-53.028-8.604-23.46-14.659-52.717-22.438-82.386-21.937-25.482.44-50.421 7.001-71.464 18.658C66.749 88.267 54.147 81.005 40 81.005c-22.056 0-40 17.944-40 40 0 14.128 7.241 26.714 18.623 33.858C6.407 176.499 0 200.862 0 226.005v40c0 5.522 4.477 10 10 10s10-4.478 10-10v-40c0-25.17 7.442-49.424 21.521-70.139a10.002 10.002 0 00-6.024-15.365C26.372 138.398 20 130.381 20 121.005c0-11.028 8.972-20 20-20 9.376 0 17.393 6.372 19.496 15.496a9.999 9.999 0 0015.365 6.025c40.657-27.621 100.495-28.72 142.282-2.61 19.141 11.957 42.389 15.869 67.232 11.314 19.467-3.573 40.612 1.017 57.405 11.103-17.121 4.53-29.78 20.148-29.78 38.672 0 10.813 4.254 20.88 11.693 28.284C316.117 225.375 312 241.713 312 256.005c0 37.261 28.642 48.388 50.856 52.165C349.31 327.091 342 349.7 342 373.435v37.57h-20c-18.188 0-20.844-14.287-20.02-33.644.995-23.35-5.978-48.621-21.329-69.838a10.002 10.002 0 00-12.809-2.962c-35.661 19.026-89.432 21.618-128.626 6.864.515-3.441.783-6.923.783-10.421 0-5.522-4.477-10-10-10s-10 4.478-10 10c0 27.942-22.816 50-50 50-5.523 0-10 4.478-10 10v50H40c-11.028 0-20-8.972-20-20v-35c0-5.522-4.477-10-10-10s-10 4.478-10 10v35c0 22.057 17.944 40.001 40 40.001zm292-175c0-13.06 4.765-29.348 13.073-44.688a10 10 0 00-3.547-13.276c-5.964-3.675-9.525-10.044-9.525-17.036 0-11.028 8.972-20 20-20 6.169 0 11.901 2.784 15.725 7.639 3.147 3.991 8.903 5.016 13.247 2.233 20.59-13.178 41.47-13.18 62.057 0a10.001 10.001 0 0013.247-2.233c6.473-8.214 15.745-8.728 22.262-6.469 6.509 2.256 13.463 8.387 13.463 18.83 0 6.992-3.561 13.361-9.525 17.036a9.998 9.998 0 00-3.547 13.276c8.308 15.34 13.073 31.628 13.073 44.688 0 18.974-8.479 31.316-50.685 34.214a9.999 9.999 0 00-9.086 7.851c-.441 2.027-.334 4.054-.186 6.858.608 11.526-.029 16.077-5.042 16.077h-30c-5.322 0-5.556-4.93-5.021-15.685.399-8.058-1.194-14.545-9.293-15.102-42.211-2.896-50.69-15.239-50.69-34.213z"/></g></svg>