<svg height="512" viewBox="0 0 512.001 512.001" width="512" xmlns="http://www.w3.org/2000/svg"><g fill="#fff"><path d="M21.79 295.506c10.67 15.984 22.759 34.094 30.032 77.337l8.186 93.846A10.21 10.21 0 0070.18 476h44.64a10.21 10.21 0 0010.174-9.329l9.613-112.493C145.291 355.421 157.383 356 166 356c15.854 0 60.512-2.178 85.333-6.988l15.553 117.481c.05.375.121.748.213 1.115A11.06 11.06 0 00277.84 476h43.24a11.063 11.063 0 0011.001-9.724l9.395-79.37c19.814 19.72 46.961 30.236 75.036 28.995C475.31 413.304 512 359.521 512 296.59V286c0-5.523-4.477-10-10-10s-10 4.477-10 10v10.59c0 56.498-31.405 97.344-76.37 99.33-42.092 1.86-77.866-28.939-83.005-69.92h40.686c4.52 17.229 20.191 30 38.689 30 22.056 0 40-17.944 40-40 0-12.58-3.379-24.92-9.771-35.686a10.002 10.002 0 00-7.217-4.799C410.089 272.039 392 250.673 392 226c0-5.523-4.477-10-10-10s-10 4.477-10 10a70.105 70.105 0 002.944 20.083 39.855 39.855 0 00-36.988 33.343L333.528 306H322c-5.523 0-10 4.477-10 10 0 16.701 4.17 33.112 12.085 47.681L313.157 456h-27.485l-15.838-119.632c-.89-6.68-7.699-11.079-14.404-8.918-15.135 5.024-67.064 8.55-89.43 8.55-11.202 0-28.041-1.064-38.55-3.098-5.834-1.129-11.358 3.054-11.864 8.966L105.833 456H79.152c-7.938-90.885-7.416-85.339-7.539-86.067-7.973-47.756-21.954-68.702-33.188-85.532C27.729 268.377 20 256.799 20 226c0-75.888 73.729-140 161-140 19.603 0 41.353 3.283 59.044 8.665-5.104 6.792-9.303 14.453-12.5 22.933-19.27 51.049 4.324 107.244 36.256 140.292 9.327 9.648 22.831 13.774 36.135 11.026 13.664-2.823 24.752-12.268 29.66-25.265l30.73-81.399c8.37-22.171 5.145-46.077-8.176-65.015 15.496-8.317 32.97-12.135 50.785-11.055C452.045 89.16 492 134.284 492 186.77V196c0 5.523 4.477 10 10 10s10-4.477 10-10v-9.23c0-61.983-46.273-116.817-107.854-120.551-22.601-1.374-44.673 3.549-66.086 15.997-22.114-17.881-55.077-23.854-82.359-3.356C234.487 70.873 206.524 66 181 66c-50.701 0-102.374 20.389-138.241 57.8C29.184 118.763 20 105.791 20 91c0-19.299 15.701-35 35-35 5.523 0 10-4.477 10-10s-4.477-10-10-10C24.673 36 0 60.673 0 91a54.895 54.895 0 0029.326 48.662C10.236 165.323 0 195.045 0 226c0 36.861 10.584 52.718 21.79 69.506zm335.894-12.793A19.935 19.935 0 01377.41 266H382c.872 0 1.749.031 2.627.076 10.143 14.545 25.212 24.613 42.484 28.337A49.998 49.998 0 01432 316c0 11.028-8.972 20-20 20-10.955 0-19.926-9.002-20-20.067A10 10 0 00382 306h-28.196zM293.795 86.085c31.872 0 61.306 33.38 47.819 69.104l-30.73 81.399c-2.473 6.55-8.079 11.314-14.995 12.743-6.647 1.372-13.102-.574-17.708-5.339-26.657-27.588-48.018-76.699-31.925-119.334 7.991-21.195 24.887-38.573 47.539-38.573z"/><circle cx="502.001" cy="241" r="10"/></g></svg>