<svg height="512" viewBox="0 0 511.991 511.991" width="512" xmlns="http://www.w3.org/2000/svg"><g fill="#fff"><path d="M265.995 326h140c5.522 0 10-4.478 10-10 0-88.649-71.979-160-160-160h-80v-56c0-11.028 8.972-20 20-20h60c11.028 0 20 8.972 20 20 0 5.522 4.478 10 10 10s10-4.478 10-10c0-18.811-13.057-34.622-30.582-38.87C261.039 26.708 231.587 0 195.995 0c-55.141 0-100 44.859-100 100v18c0 5.522 4.478 10 10 10s10-4.478 10-10v-18c0-44.112 35.888-80 80-80 24.146 0 44.35 17.206 48.995 40h-48.995c-22.056 0-40 17.944-40 40v66c0 55.141 44.859 100 100 100h130.809a138.372 138.372 0 018.843 40H180.995c-35.841 0-65-29.159-65-65v-33c0-5.522-4.478-10-10-10s-10 4.478-10 10v33c0 46.869 38.131 85 85 85h56.648l-50.051 77.579a10 10 0 000 10.842L237.643 492h-41.648c-5.522 0-10 4.478-10 10s4.478 9.99 10 9.99h59.994l.016.001c.025 0 .05-.005.075-.005 5.404-.045 9.864-4.398 9.911-9.906 0-.027.004-.053.004-.079zm-10-80c-40.724 0-74.413-30.593-79.353-70h79.353c50.4 0 96.461 27.023 121.278 70h-31.278c-28.475 0-55.03-15.33-69.304-40.007-2.765-4.779-8.881-6.417-13.663-3.649-4.781 2.766-6.415 8.883-3.649 13.663 6.869 11.875 16.022 22.009 26.705 29.993zm-10 103.946v118.108L207.896 409z"/><circle cx="105.996" cy="163" r="10"/></g></svg>