<svg height="512" viewBox="0 0 512.079 512.079" width="512" xmlns="http://www.w3.org/2000/svg"><g fill="#fff"><circle cx="406" cy="286.04" r="10"/><circle cx="184.001" cy="312.04" r="10"/><path d="M501.714 272.144c-23.499.692-46.359-15.564-53.516-36.104h52.081c5.523 0 10-4.477 10-10s-4.477-10-10-10H445.54c-1.652-18.071-7.841-34.324-18.182-47.856l33.324-29.068c4.162-3.63 4.593-9.948.963-14.109-3.63-4.162-9.947-4.593-14.109-.963L413.5 153.733c-11.559-9.687-26.024-17.24-42.615-22.236l12.118-45.546c1.42-5.337-1.755-10.815-7.092-12.235-5.339-1.42-10.815 1.755-12.235 7.092l-12.286 46.176c-14.108-2.395-28.971-3.159-44.197-2.389l-3.751-49.314c-.419-5.508-5.234-9.633-10.729-9.213-5.507.419-9.632 5.223-9.213 10.729l3.776 49.64c-14 1.876-28.143 4.97-42.135 9.197l-15.697-46.871c-1.754-5.236-7.42-8.059-12.658-6.307-5.237 1.754-8.061 7.421-6.307 12.658l15.727 46.961a287.386 287.386 0 00-38.852 18.175l-25.979-42.176c-2.897-4.702-9.059-6.167-13.759-3.27-4.702 2.896-6.166 9.056-3.27 13.759l25.949 42.128c-11.608 7.694-22.793 16.351-33.815 26.619l-35.198-34.521c-3.943-3.868-10.274-3.806-14.141.137s-3.806 10.274.137 14.141l35.124 34.449a238.4 238.4 0 00-26.222 34.463l-42.73-23.954c-4.818-2.7-10.912-.984-13.613 3.833-2.701 4.818-.985 10.913 3.833 13.613l42.628 23.897a232.373 232.373 0 00-16.13 40.332l-47.221-11.659c-5.36-1.322-10.782 1.95-12.105 7.312s1.95 10.782 7.312 12.105l47.165 11.646c-2.879 13.888-4.584 28.218-5.116 42.936H10c-5.523 0-10 4.477-10 10s4.477 10 10 10h116v20c0 22.056 17.944 40 40 40h30c5.523 0 10-4.477 10-10v-50h106v20c0 22.056 17.944 40 40 40h30c5.523 0 10-4.477 10-10v-50h20.6c56.717 0 101.727-46.95 99.392-104.307-.223-5.472-4.832-9.743-10.278-9.589zM412.6 366.04H382c-5.523 0-10 4.477-10 10v50h-20c-11.028 0-20-8.972-20-20v-30c0-5.523-4.477-10-10-10H196c-5.523 0-10 4.477-10 10v50h-20c-11.028 0-20-8.972-20-20v-28.046a121.649 121.649 0 0114.392-28.58c3.112-4.563 1.936-10.784-2.626-13.896-4.563-3.112-10.785-1.937-13.896 2.626-5.937 8.705-10.864 18.058-14.739 27.895H80.198c6.354-165.614 174.843-240.885 276.223-217.702 36.863 8.428 64.863 30.112 69.022 67.702h-46.66c-9.385-17.292-27.794-28.5-47.784-28.5-29.996 0-54.4 24.404-54.4 54.4 0 12.381 4.133 24.069 11.506 33.437a45.632 45.632 0 01-7.806.664h-18.9a142 142 0 00-40.229 5.81c-5.297 1.564-8.323 7.126-6.759 12.423s7.128 8.322 12.423 6.759a121.96 121.96 0 0134.565-4.992h18.9c11.195 0 21.812-2.745 31.557-8.158 6.619-3.677 6.903-13.126.499-17.187-9.865-6.257-15.755-17.006-15.755-28.755 0-18.968 15.432-34.4 34.4-34.4 14.135 0 27.018 8.868 32.058 22.067a10 10 0 009.342 6.433h55.003c6.568 28.562 33.707 51.949 64.484 55.622-2.778 40.942-36.275 74.378-79.287 74.378z"/></g></svg>