<svg height="512" width="512" xmlns="http://www.w3.org/2000/svg"><g fill="#fff"><path d="M431.628 240.211C407.853 202.938 366.345 180 321.955 180h-35.53c-33.252 0-57.504-28.446-56.457-61.564.428-10.898-2.857-29.188-9.186-44.308-2.133-5.095-7.99-7.499-13.086-5.363-5.094 2.133-7.496 7.991-5.363 13.086 4.678 11.175 7.253 23.101 7.658 35.45l-.011.442C208.566 162.447 242.022 200 286.425 200h35.53c59.947 0 110 48.593 110 110v182h-25v-92c0-5.522-4.478-10-10-10-27.867 0-50-22.575-50-50v-30c0-5.522-4.478-10-10-10s-10 4.478-10 10v30c0 7.301 1.16 14.573 3.383 21.486-18.869 5.367-42.778 8.431-67.417 8.514-19.349.087-38.308-1.71-54.763-5.036 23.979-20.735 27.849-55.719 21.603-86.927-1.084-5.416-6.355-8.926-11.768-7.843-5.416 1.084-8.927 6.353-7.843 11.769 7.096 35.452-1.508 71.095-37.156 78.231a10 10 0 00-8.038 9.806v122h-25V370a9.987 9.987 0 00-1.056-4.472c-18.936-37.871-28.944-80.269-28.944-122.608v-58.152c18.693-13.281 30.09-34.619 30.09-56.958v-15c0-5.522-4.477-10-10-10s-10 4.478-10 10v15c0 17.217-9.662 33.68-25.216 42.965a9.998 9.998 0 00-4.874 8.586v26.987c-22.488-5.478-40-25.759-40-48.545L49.893 78h35.152c5.523 0 10-4.478 10-10s-4.477-10-10-10H27.988c18.036-23.778 47.028-38 79.137-38 12.853 0 25.354 2.221 37.157 6.602 5.177 1.921 10.933-.719 12.854-5.896 1.922-5.178-.718-10.933-5.896-12.854C137.204 2.642 122.361 0 107.125 0 61.325 0 20.699 24.342 1.101 63.526A10 10 0 0010.045 78h19.918l.062 79.81c0 34.099 26.115 63.243 59.93 68.963v16.147c0 44.636 10.367 89.329 30 129.419V492h-20c-5.523 0-10 4.478-10 10s4.477 10 10 10h75c5.523 0 10-4.478 10-10V379.704c21.27 6.58 48.803 10.298 76.953 10.298l1.08-.002c27.848-.093 55.096-3.813 76.298-10.304a69.683 69.683 0 0047.669 29.596V492h-20c-5.522 0-10 4.478-10 10s4.478 10 10 10h75c5.522 0 10-4.478 10-10V388.923c12.716 12.993 30.428 21.077 50 21.077 5.522 0 10-4.478 10-10v-73.95c0-45.524-35.539-82.881-80.327-85.839zm60.327 148.784c-22.794-4.646-40-24.85-40-48.995v-30c0-16.43-3.124-32.655-9.097-47.785 28.231 7.504 49.097 33.274 49.097 63.834z"/><circle cx="185.956" cy="41" r="10"/></g></svg>