<svg height="512" viewBox="0 0 512.001 512.001" width="512" xmlns="http://www.w3.org/2000/svg"><g fill="#fff"><path d="M437.332 109.972c36.485-1.502 74.549-29.978 74.549-69.972 0-5.522-4.478-10-10-10h-97.544c-13.021-18.639-34.53-30-57.456-30h-60c-5.522 0-10 4.478-10 10 0 32.965 22.656 60.68 53.564 68.07-2.476 8.466-5.885 22.505-10.502 46.333-2.868 14.801-7.062 38.446-8.108 45.868-.014.064-.033.125-.046.189-2.606 12.904-17.474 21.54-28.208 21.54-73.297 0-137.069 49.618-155.082 120.66-18.852 74.277-27.167 116.437-72.445 146.619l-51.6 34.4A9.999 9.999 0 0010.001 512h30c62.137 0 117.614-34.939 146-85.123V502c0 5.522 4.478 10 10 10h40.001c5.522 0 10-4.478 10-10s-4.478-10-10-10h-30.001V352c0-5.522-4.478-10-10-10s-10 4.478-10 10c0 74.901-65.138 138.331-142.924 139.968l24.07-16.047c52.02-34.677 61.352-81.923 80.737-158.343 15.634-61.658 70.656-104.872 134.133-105.569 8.399 1.286 42.919-6.652 49.313-37.282.024-.1.078-.369.056-.269.187-.879 14.159-86.985 21.408-99.506 3.754-6.484-.713-14.662-8.203-15.001C321.256 58.896 302.33 42.069 297.875 20h49.006c17.794 0 34.396 9.583 43.326 25.01a9.968 9.968 0 008.654 4.98h91.735c-5.97 22.914-30.7 39.035-54.088 39.999C414.286 90.905 397 108.48 397 130v102c0 5.522 4.357 10 9.88 10H442c24.146 0 44.35 17.206 48.995 40l-114.908-.01c-10.591-.092-19.207-8.791-19.207-19.391 0-5.522-4.478-10-10-10s-10 4.478-10 10c0 17.941 12.16 33.193 28.665 37.893C361.291 340.627 327.244 372 286.001 372h-29c-5.522 0-10 4.478-10 10v60c0 5.522 4.478 10 10 10h59.88c24.146 0 44.35 17.206 48.995 40h-39.873c-5.522 0-10 4.478-10 10s4.478 10 10 10h50.878c5.522 0 10-4.478 10-10 0-28.637-17.293-53.299-41.979-64.128 42.161-21.519 71.099-65.378 71.099-115.872v-20h86c5.522 0 10-4.478 10-10 0-38.598-31.402-70-70-70h-25.12v-92c0-10.757 8.983-19.554 20.451-20.028zM396.001 322c0 60.654-49.346 110-110 110h-19v-40h19c51.766 0 94.468-39.537 99.501-90h10.499z"/><circle cx="281.001" cy="502" r="10"/></g></svg>