<svg height="512" width="512" xmlns="http://www.w3.org/2000/svg"><g fill="#fff"><path d="M352 105c-22.056 0-40 17.944-40 40v15c0 22.056 17.944 40 40 40s40-17.944 40-40v-15c0-22.056-17.944-40-40-40zm20 55c0 11.028-8.972 20-20 20s-20-8.972-20-20v-15c0-11.028 8.972-20 20-20s20 8.972 20 20z"/><path d="M442 0c-25.306 0-48.131 13.396-60.536 34.822C371.827 31.622 361.953 30 352 30c-9.954 0-19.828 1.622-29.464 4.823C310.131 13.396 287.306 0 262 0c-38.598 0-70 31.402-70 70 0 30.345 19.383 56.727 47.341 66.241C237.796 144.227 237 152.184 237 160c0 33.755 14.595 61.853 41.985 80H182V10c0-5.523-4.477-10-10-10H10C4.477 0 0 4.477 0 10v492c0 5.522 4.477 10 10 10h322.55c35.811 0 69.242-13.047 96.681-37.731 4.105-3.693 4.439-10.017.746-14.122-3.694-4.107-10.018-4.439-14.123-.747-23.706 21.327-52.512 32.6-83.304 32.6h-51.627C293.916 479.284 302 461.572 302 442c0-5.523-4.478-10-10-10s-10 4.477-10 10c0 27.57-22.43 50-50 50h-50v-20c0-11.028 8.972-20 20-20h30c5.523 0 10-4.477 10-10v-72c0-27.57 22.43-50 50-50s50 22.43 50 50c0 5.523 4.478 10 10 10s10-4.477 10-10c0-38.598-31.401-70-70-70h-90c-24.197 0-44.279-17.134-48.981-40 91.812-.03 99.356 0 198.981 0 28.198 0 53.843-7.177 73.612-20.407l24.833 49.659c14.96 29.918 18.114 65.028 8.883 98.862-1.454 5.328 1.688 10.826 7.016 12.28 5.338 1.456 10.828-1.697 12.279-7.015 10.529-38.589 6.875-78.745-10.289-113.072l-26.938-53.869C458.177 209.05 467 186.245 467 160c0-7.816-.796-15.773-2.341-23.759C492.617 126.727 512 100.345 512 70c0-38.598-31.401-70-70-70zM212 70c0-27.57 22.43-50 50-50 17.343 0 33.057 8.806 42.13 23.036-26.673 15.106-48.519 42.176-59.556 73.853C225.273 109.754 212 91.232 212 70zm31.077 250C230.084 332.716 222 350.428 222 370v62h-20a39.741 39.741 0 00-20 5.381V317.083A70.147 70.147 0 00202 320zM162 307.437V492H20V20h142v220h-20c-5.523 0-10 4.477-10 10 0 22.928 11.365 44.426 30 57.437zM352 240c-51.571 0-95-26.507-95-80 0-52.543 42.89-110 95-110 51.901 0 95 57.255 95 110 0 52.421-42.796 80-95 80zm107.426-123.111c-11.037-31.677-32.884-58.748-59.556-73.853C408.944 28.806 424.658 20 442 20c27.57 0 50 22.43 50 50 0 21.232-13.273 39.754-32.574 46.889z"/><path d="M106 150c-5.523 0-10 4.477-10 10v30c0 5.523 4.477 10 10 10s10-4.477 10-10v-30c0-5.523-4.477-10-10-10zm-30 90c-5.523 0-10 4.477-10 10v30c0 5.523 4.477 10 10 10s10-4.477 10-10v-30c0-5.523-4.477-10-10-10zm0-180c-5.523 0-10 4.477-10 10v30c0 5.523 4.477 10 10 10s10-4.477 10-10V70c0-5.523-4.477-10-10-10zm30 270c-5.523 0-10 4.477-10 10v30c0 5.523 4.477 10 10 10s10-4.477 10-10v-30c0-5.523-4.477-10-10-10z"/><circle cx="451" cy="432" r="10"/></g></svg>