<svg height="512" viewBox="0 0 512.003 512.003" width="512" xmlns="http://www.w3.org/2000/svg"><g fill="#fff"><path d="M11.721 315.141l-8.79 8.79c-3.905 3.905-3.905 10.237 0 14.143l17.57 17.57c25.473 25.472 39.501 59.338 39.501 95.358 0 5.522 4.477 10 10 10h150c5.523 0 10-4.478 10-10 0-33.352-12.313-50.161-40.595-54.089l11.985-29.969c18.049 4.07 36.954 6.27 55.611 6.184 7.511 14.673 18.492 27.096 32.062 36.191 11.238 7.53 16.937 21.555 16.937 41.683 0 5.522 4.477 10 10 10h75c5.523 0 10-4.478 10-10 0-35.036-13.584-51.816-45-54.585v-61.273l14.641-14.641a155.77 155.77 0 0012.398-13.991c3.407-4.347 2.645-10.633-1.702-14.039-4.347-3.408-10.633-2.646-14.04 1.701a135.489 135.489 0 01-10.799 12.187l-5.16 5.16c-7.253-25.097-23.08-48.417-47.13-69.369a82.398 82.398 0 01-24.417-37.184c-9.703-30.574-.568-62.198 20.01-82.936 18.369-18.528 43.98-27.045 69.274-23.674l-8.668 12.999c-8.087 12.138-5.65 28.151 5.665 37.247 19.255 15.486 30.995 38.702 29.816 67.873-.224 5.518 4.069 10.173 9.587 10.396.138.005.275.008.412.008 5.335 0 9.767-4.215 9.984-9.596.166-4.078.094-8.78.038-13.076l29.218 8.37c18.267 5.933 37.664-7.815 36.861-27.163.063-.364.686-1.19 1.247-1.669.696-.461-1.635 1.811 25.834-25.676a10 10 0 00-2.309-15.866l-95.926-51.938c-29.967-17.222-86.188-21.705-125.233 17.678-10.352 10.432-18.409 23.145-23.448 36.941l-13.088 8.72c-17.081 11.378-36.945 17.393-57.446 17.393h-61.62c-30.96 0-59.409 13.849-78.283 37.575l-.266-.266c-15.058-15.058-15.058-39.56 0-54.617 30.841-30.84 18.379-83.293-22.92-97.059l-15.37-5.12C7.922 49.767 2.26 52.599.514 57.839-1.23 63.082 1.602 68.745 6.842 70.49l15.369 5.12c27.256 9.083 35.381 43.663 15.101 63.941-42.037 42.039 3.309 86.152 3.351 86.252a98.792 98.792 0 00-10.659 45c.05 16.508-6.613 32.669-18.283 44.338zm389.48-207.344l84.249 45.616-14.792 14.792c-2.476 2.036-9.041 8.368-8.647 17.989.221 5.357-5.603 9.07-10.771 7.343a9.9 9.9 0 00-.414-.128l-39.051-11.188c-5.755-19.166-17.201-36.363-33.168-49.203-3.191-2.565-3.859-7.109-1.555-10.567l12.969-19.45a49.376 49.376 0 0110.941 4.662c.079.046.159.09.239.134zM209.568 441.003H154.58c-2.493-28.257-16.317-42.094-44.578-44.585v-36.591a130.006 130.006 0 0027.601-17.268c13.304 7.673 28.372 14.181 44.336 19.167l-16.222 40.564c-2.623 6.557 2.214 13.713 9.285 13.713 23.796 0 32.627 5.641 34.566 25zm-79.565-250h61.62c22.884 0 45.099-6.282 64.552-18.205-.916 12.811.592 25.727 4.558 38.224a102.387 102.387 0 0030.342 46.212c41.727 36.352 42.242 68.42 44.929 75.002v73.767c0 5.522 4.477 10 10 10 23.795 0 32.626 5.642 34.565 25h-54.985c-1.922-22.063-10.436-38.282-25.383-48.297-12.218-8.188-21.802-19.817-27.711-33.623-4.304-10.07-6.486-20.78-6.486-31.83v-26.25c0-5.522-4.477-10-10-10s-10 4.478-10 10v26.25c0 8.792 1.116 17.414 3.319 25.774-33.472-1.042-68.217-9.838-96.574-24.942a130.64 130.64 0 0015.937-22.12c2.74-4.795 1.075-10.903-3.72-13.644-4.795-2.744-10.904-1.075-13.645 3.72a110.984 110.984 0 01-55.039 47.93 10.002 10.002 0 00-6.279 9.282v52.75c0 5.522 4.477 10 10 10 23.795 0 32.626 5.642 34.565 25h-54.88c-2.38-37.602-18.163-72.62-45.043-99.501l-10.499-10.499 1.719-1.719c15.408-15.408 24.207-36.747 24.139-58.547a78.79 78.79 0 0111.59-41.456c14.664-23.969 40.238-38.278 68.409-38.278z"/><circle cx="397.003" cy="261.003" r="10"/></g></svg>